<?xml version="1.0" encoding="UTF-8"?>
<!DOCTYPE svg PUBLIC "-//W3C//DTD SVG 1.1//EN" "http://www.w3.org/Graphics/SVG/1.1/DTD/svg11.dtd">
<!-- Creator: CorelDRAW 2019 (64-Bit) -->
<svg xmlns="http://www.w3.org/2000/svg" xml:space="preserve" width="8.5545mm" height="10.5833mm" version="1.1" style="shape-rendering:geometricPrecision; text-rendering:geometricPrecision; image-rendering:optimizeQuality; fill-rule:evenodd; clip-rule:evenodd"
viewBox="0 0 18.65 23.08"
 xmlns:xlink="http://www.w3.org/1999/xlink">
 <defs>
  <style type="text/css">
   <![CDATA[
    .fil0 {fill:white}
   ]]>
  </style>
 </defs>
 <g id="Слой_x0020_1">
  <metadata id="CorelCorpID_0Corel-Layer"/>
  <g id="user_x0020__x0028_1_x0029_">
   <path class="fil0" d="M0.3 18.72l7.02 0c0.65,2.56 2.94,4.35 5.58,4.35 3.17,0 5.75,-2.59 5.75,-5.76 0,-3.17 -2.58,-5.75 -5.75,-5.75 -0.35,-0 -0.7,0.03 -1.05,0.09 -0.64,-2.23 -2.67,-3.76 -4.98,-3.77l-1.7 0c-2.86,0.01 -5.18,2.34 -5.17,5.2l0 5.29c0,0.18 0.12,0.34 0.3,0.34zm17.71 -1.41c0,2.82 -2.29,5.11 -5.11,5.11 -2.82,0 -5.11,-2.29 -5.11,-5.11 0,-2.82 2.29,-5.11 5.11,-5.11 2.82,0 5.1,2.29 5.11,5.11zm-17.36 -4.23c-0.01,-2.51 2.02,-4.55 4.53,-4.55l1.7 0c2.02,0.01 3.79,1.34 4.36,3.28 -2.42,0.75 -4.07,2.98 -4.08,5.51 0,0.25 0.02,0.5 0.05,0.75l-6.55 0 0 -4.99zm0 0z"/>
   <path class="fil0" d="M6.02 7.24l0 0 0 -0.31 0 0.33c2.01,-0 3.63,-1.63 3.63,-3.63 -0,-0.96 -0.38,-1.89 -1.07,-2.56 -0.68,-0.68 -1.61,-1.06 -2.57,-1.06l-0 0c-2,0 -3.62,1.62 -3.62,3.62 0,2 1.62,3.62 3.62,3.62zm-2.11 -5.72c0.56,-0.56 1.32,-0.88 2.11,-0.87l0 0c1.64,-0 2.97,1.33 2.98,2.97 0,1.64 -1.33,2.97 -2.97,2.98l-0 -0c-1.21,0.01 -2.3,-0.72 -2.76,-1.83 -0.46,-1.11 -0.21,-2.4 0.65,-3.25zm0 0z"/>
   <path class="fil0" d="M9.62 20.69c0.09,0 0.17,-0.03 0.23,-0.09l0.28 -0.28 0.82 0.81c0.13,0.12 0.33,0.12 0.45,0l1.16 -1.15c0.06,-0.06 0.1,-0.14 0.1,-0.23 0,-0.09 -0.03,-0.17 -0.09,-0.23l-0.82 -0.82 1.72 -1.72c0.8,0.56 1.9,0.42 2.53,-0.33 0.63,-0.75 0.58,-1.86 -0.11,-2.55 -0.69,-0.69 -1.8,-0.74 -2.55,-0.11 -0.75,0.63 -0.89,1.73 -0.33,2.53l-3.62 3.62c-0.09,0.09 -0.12,0.23 -0.07,0.35 0.05,0.12 0.17,0.2 0.3,0.2l0 -0zm2.26 -0.95l-0.71 0.7 -0.59 -0.58 0.71 -0.71 0.59 0.59zm2.67 -5.54c0.68,0 1.24,0.55 1.24,1.24 0,0.68 -0.55,1.24 -1.24,1.24 -0.68,0 -1.24,-0.55 -1.24,-1.24 0,-0.68 0.55,-1.24 1.24,-1.24l0 -0zm0 0z"/>
  </g>
 </g>
</svg>
