<svg xmlns="http://www.w3.org/2000/svg" viewBox="0 0 25.49 28.38"><defs><style>.cls-1{opacity:0.07;}.cls-2{fill:#fff;}</style></defs><g id="Слой_2" data-name="Слой 2"><g id="Layer_1" data-name="Layer 1"><g class="cls-1"><path class="cls-2" d="M18.35,9.41a6.3,6.3,0,0,0-2.46,1A6.33,6.33,0,0,0,10.24.05,6.33,6.33,0,0,0,7.9,11.62a6.19,6.19,0,0,0-2.65-.23A6.34,6.34,0,0,0,7.14,23.92a6.34,6.34,0,0,0,5.19-5.41c0,2.35,0,7.55-.68,9.87l5.6-.84c-1.34-2-2.89-7-3.56-9.23a6.33,6.33,0,0,0,6.55,3.63A6.34,6.34,0,0,0,18.35,9.41Z"/></g></g></g></svg>