<?xml version="1.0" encoding="UTF-8"?>
<!DOCTYPE svg PUBLIC "-//W3C//DTD SVG 1.1//EN" "http://www.w3.org/Graphics/SVG/1.1/DTD/svg11.dtd">
<!-- Creator: CorelDRAW 2019 (64-Bit) -->
<svg xmlns="http://www.w3.org/2000/svg" xml:space="preserve" width="157.814mm" height="163.336mm" version="1.1" style="shape-rendering:geometricPrecision; text-rendering:geometricPrecision; image-rendering:optimizeQuality; fill-rule:evenodd; clip-rule:evenodd"
viewBox="0 0 8228.92 8516.85"
 xmlns:xlink="http://www.w3.org/1999/xlink">
 <defs>
  <style type="text/css">
   <![CDATA[
    .fil0 {fill:#B1F049}
    .fil1 {fill:white}
   ]]>
  </style>
 </defs>
 <g id="Слой_x0020_1">
  <metadata id="CorelCorpID_0Corel-Layer"/>
  <g id="_1989261865344">
   <path class="fil0" d="M4416.31 6849.53c-34.17,-195.09 -27.77,-396.73 -295.52,-396.73 -263.08,0 -266.81,192.07 -299.3,382.87 -102.95,604.67 -249.73,1309.01 -421.91,1681.19l1443.24 -3.05c-172.62,-368.29 -321.25,-1063.33 -426.51,-1664.28z"/>
   <path class="fil1" d="M6265.21 3127.62c129.12,103.65 264.24,210.97 406.14,323.69l127.72 101.48c502.93,399.73 800.56,822.93 938.79,1231.21 124.19,366.85 118.63,724.63 18.26,1040.9 -100.39,316.33 -295.39,592.2 -550.03,794.94 -254.97,203 -568.46,332.57 -905.37,355.97l-6.35 0.34c-423.83,28.25 -765.52,-109.57 -1031.29,-302.15 -168.77,-140.92 -309.13,-267.23 -427.17,-378.86 -14.1,-13.35 -27.9,-26.48 -41.38,-39.4 -29.43,-20.34 -65.13,-32.25 -103.61,-32.25 -100.8,0 -182.53,81.72 -182.53,182.53 0,39.22 12.38,75.56 33.43,105.31 7.95,9.19 15.88,18.35 23.84,27.45 460.32,526.93 935.63,888.3 1755.13,833.68 1706.74,-113.4 2913.22,-2391.6 725.4,-4130.53 -175.47,-139.51 -340.46,-270.21 -496.44,-395.21 -51.53,-41.31 -102.09,-82 -151.71,-122.17 -46.06,-37.29 -91.31,-74.14 -135.81,-110.65 -50.64,-41.54 -100.28,-82.64 -149.01,-123.41l-282.13 282.13c48,40.25 96.86,80.79 146.64,121.72 45.2,37.18 91.15,74.68 137.91,112.6 48.96,39.72 98.8,79.9 149.56,120.65zm-4128.78 3858.58c-63.36,3.64 -128.88,3.59 -196.58,-0.63 -34.46,-2.14 -68.67,-5.39 -102.6,-9.7 -59.87,-7.61 -118.87,-18.54 -176.77,-32.6l-317.07 317.07c132.46,49.11 270.96,84.73 413.69,105.19 52.59,7.54 105.77,13.03 159.43,16.37 823.39,51.2 1292.91,-313.45 1751.95,-841.8 6.86,-7.9 13.72,-15.84 20.58,-23.81 22.09,-30.42 35.1,-67.83 35.1,-108.28 0,-101.91 -82.61,-184.52 -184.52,-184.52 -48.03,0 -91.78,18.35 -124.61,48.43 -0.14,0.12 -0.27,0.25 -0.41,0.37 -155.68,143.05 -348.92,311.55 -592.6,505.7 -127.3,74.49 -269.91,134.8 -428.61,171.54 -81.4,18.84 -167.02,31.48 -256.99,36.66zm-1705.77 -1309.16c-57.02,-273.27 -44.57,-572.03 57.54,-877.85 136.45,-408.67 432.38,-833.12 933.96,-1235.33l127.65 -102.33c1160.2,-929.76 1864.5,-1494.31 2555.23,-2642.57 199.1,327.92 399.03,607.97 610.25,862.34l283.48 -283.49c-312.45,-380.4 -598.81,-820.36 -895.67,-1397.64l-0.23 -0.16c-804.11,1580.32 -1534.04,2135.39 -2929.39,3254.56 -671.56,538.51 -1020.82,1126.81 -1132.72,1686.23 -56.12,280.54 -52.54,553.82 0,809.91 17.39,84.77 40.16,167.67 67.9,248.32 42.83,124.53 97.53,243.71 162.67,356.22l292.72 -292.73c-35.28,-71.35 -65.51,-145.55 -90.18,-222.16 -17.17,-53.29 -31.62,-107.78 -43.22,-163.33zm3281.6 -2312.12l392.23 -1100.74 -1102.27 390.69 225.3 225.3 -2796.86 2796.87c11.59,55.55 26.05,110.04 43.22,163.33 24.67,76.6 54.9,150.81 90.18,222.16l2922.91 -2922.91 225.31 225.3zm-1575.84 3621.29l3979.22 -3979.23c-46.76,-37.92 -92.72,-75.42 -137.91,-112.6 -49.78,-40.93 -98.64,-81.47 -146.64,-121.72l-4170.62 4170.63c57.9,14.06 116.9,24.99 176.77,32.6 33.93,4.31 68.14,7.56 102.6,9.7 67.7,4.21 133.23,4.27 196.58,0.63zm3976.79 -4495.68c48.73,40.78 98.38,81.87 149.01,123.41 44.5,36.51 89.75,73.35 135.81,110.65l998.68 -998.68 225.31 225.3 392.23 -1100.74 -1102.27 390.69 225.3 225.3 -1024.06 1024.06z"/>
   <path class="fil0" d="M868.08 6490.25l-280.16 280.16c86.16,87.55 179.99,167.45 280.29,238.59l285.13 -285.13c0.2,0.13 0.4,0.26 0.6,0.39l4290.44 -4288.01 231.8 204.81 142.42 -403.78 237.91 -674.49 -690.56 244.76 -411.71 145.93 225.3 225.3 -3.52 3.52 -4307.94 4307.95z"/>
  </g>
 </g>
</svg>
