<?xml version="1.0" encoding="UTF-8"?>
<!DOCTYPE svg PUBLIC "-//W3C//DTD SVG 1.1//EN" "http://www.w3.org/Graphics/SVG/1.1/DTD/svg11.dtd">
<!-- Creator: CorelDRAW 2019 (64-Bit) -->
<svg xmlns="http://www.w3.org/2000/svg" xml:space="preserve" width="24.6944mm" height="24.6944mm" version="1.1" style="shape-rendering:geometricPrecision; text-rendering:geometricPrecision; image-rendering:optimizeQuality; fill-rule:evenodd; clip-rule:evenodd"
viewBox="0 0 94.61 94.61"
 xmlns:xlink="http://www.w3.org/1999/xlink">
 <defs>
  <style type="text/css">
   <![CDATA[
    .fil0 {fill:#B1F049}
   ]]>
  </style>
 </defs>
 <g id="Слой_x0020_1">
  <metadata id="CorelCorpID_0Corel-Layer"/>
  <g id="brain">
   <path class="fil0" d="M79.18 76.97c-1.51,0.79 -3.17,1.28 -4.93,1.46 -0.38,0.04 -0.72,0.23 -0.96,0.53 -0.23,0.3 -0.33,0.68 -0.28,1.06 0.08,0.52 0.12,0.96 0.12,1.36 0,5.77 -5.48,10.46 -12.22,10.46 -4.91,0 -9.32,-2.5 -11.25,-6.38 -0.22,-0.44 -0.56,-0.8 -0.97,-1.04l0 -17.51c0.11,-0 0.21,-0.01 0.32,-0.01 2.71,-0.1 6.08,-0.22 7.95,1.59 0.97,0.93 1.53,2.39 1.68,4.33 -1.59,0.58 -2.73,2.11 -2.73,3.9 0,2.29 1.87,4.16 4.16,4.16 2.29,0 4.16,-1.87 4.16,-4.16 0,-1.82 -1.18,-3.37 -2.81,-3.93 -0.18,-2.73 -1.03,-4.85 -2.53,-6.3 -2.72,-2.63 -6.92,-2.48 -9.98,-2.37 -0.07,0 -0.15,0.01 -0.22,0.01l0 -8.71c14.14,0.03 21.27,0.61 21.89,8.23 -1.59,0.58 -2.73,2.11 -2.73,3.9 0,2.29 1.87,4.16 4.16,4.16 2.29,0 4.16,-1.87 4.16,-4.16 0,-1.82 -1.18,-3.37 -2.82,-3.93 -0.34,-4.91 -2.91,-8.05 -7.83,-9.56 -4.27,-1.32 -10.09,-1.4 -16.84,-1.4l0 -8.66c6.75,-0.01 12.57,-0.09 16.84,-1.4 4.92,-1.52 7.49,-4.65 7.83,-9.56 1.64,-0.56 2.82,-2.11 2.82,-3.93 0,-2.29 -1.87,-4.16 -4.16,-4.16 -2.29,0 -4.16,1.87 -4.16,4.16 0,1.79 1.14,3.32 2.73,3.9 -0.62,7.62 -7.75,8.2 -21.89,8.23l0 -8.44c0.07,0 0.15,0 0.22,0.01 0.65,0.02 1.35,0.05 2.07,0.05 2.7,0 5.76,-0.35 7.9,-2.42 1.5,-1.45 2.35,-3.56 2.53,-6.3 1.64,-0.56 2.81,-2.11 2.81,-3.93 0,-2.29 -1.87,-4.16 -4.16,-4.16 -2.29,0 -4.16,1.86 -4.16,4.16 0,1.79 1.14,3.32 2.73,3.9 -0.15,1.94 -0.72,3.4 -1.68,4.33 -1.88,1.81 -5.25,1.69 -7.95,1.59 -0.11,-0 -0.21,-0.01 -0.32,-0.01l0 -6c0,-0.77 -0.62,-1.39 -1.39,-1.39 -0.77,0 -1.39,0.62 -1.39,1.39l0 60.42c-0.41,0.25 -0.75,0.6 -0.97,1.04 -1.93,3.87 -6.34,6.38 -11.25,6.38 -6.74,0 -12.22,-4.69 -12.22,-10.46 0,-0.4 0.04,-0.83 0.12,-1.36 0,-0.02 0.34,-2.32 1.92,-3.84 0.55,-0.53 0.57,-1.41 0.03,-1.96 -0.53,-0.55 -1.41,-0.57 -1.96,-0.03 -1.36,1.31 -2.07,2.94 -2.42,4.08 -3.23,-0.61 -6.1,-2.35 -7.83,-4.8 -0.44,-0.62 -1.31,-0.77 -1.93,-0.33 -0.62,0.44 -0.77,1.31 -0.33,1.93 2.19,3.09 5.65,5.2 9.63,5.93 -0,0.13 -0.01,0.26 -0.01,0.38 0,7.3 6.73,13.24 14.99,13.24 5.85,0 11.16,-3 13.61,-7.67 2.45,4.67 7.76,7.67 13.61,7.67 8.27,0 14.99,-5.94 14.99,-13.24 0,-0.13 -0,-0.25 -0.01,-0.38 1.61,-0.3 3.14,-0.82 4.57,-1.57 0.68,-0.36 0.94,-1.19 0.58,-1.87 -0.36,-0.68 -1.19,-0.94 -1.87,-0.58l0 0zm-19.1 -1.63c0.77,0 1.39,0.62 1.39,1.39 0,0.76 -0.62,1.39 -1.39,1.39 -0.77,0 -1.39,-0.62 -1.39,-1.39 0,-0.76 0.62,-1.39 1.39,-1.39zm11.94 -9.17c0.77,0 1.39,0.62 1.39,1.39 0,0.76 -0.62,1.39 -1.39,1.39 -0.77,0 -1.39,-0.62 -1.39,-1.39 0,-0.76 0.62,-1.39 1.39,-1.39zm0 -38.46c0.77,0 1.39,0.62 1.39,1.39 0,0.76 -0.62,1.39 -1.39,1.39 -0.77,0 -1.39,-0.62 -1.39,-1.39 0,-0.76 0.62,-1.39 1.39,-1.39zm-11.94 -8.9c0.77,0 1.39,0.62 1.39,1.39 0,0.76 -0.62,1.39 -1.39,1.39 -0.77,0 -1.39,-0.62 -1.39,-1.39 0,-0.76 0.62,-1.39 1.39,-1.39z"/>
   <path class="fil0" d="M9.58 68.05c0,-2.51 1.05,-5 2.89,-6.85 0.35,-0.36 0.49,-0.88 0.35,-1.36 -0.14,-0.48 -0.53,-0.85 -1.02,-0.97 -5.31,-1.23 -9.02,-5.38 -9.02,-10.08 0,-2.92 1.36,-5.7 3.83,-7.82 0.3,-0.25 0.47,-0.62 0.48,-1.01 0.01,-0.39 -0.14,-0.77 -0.42,-1.04 -1.42,-1.37 -2.2,-3.13 -2.2,-4.94 0,-4.07 3.75,-7.36 8.54,-7.49 0.02,0 2.14,0.04 3.62,1.35 0.26,0.23 0.59,0.35 0.92,0.35 0.38,0 0.76,-0.16 1.04,-0.47 0.51,-0.57 0.45,-1.45 -0.12,-1.96 -1.6,-1.41 -3.58,-1.85 -4.67,-1.98 -0.54,-0.98 -0.82,-2.05 -0.82,-3.13 0,-2.29 1.21,-4.43 3.32,-5.86 0.63,-0.43 0.8,-1.29 0.37,-1.93 -0.43,-0.63 -1.29,-0.8 -1.93,-0.37 -2.88,1.96 -4.54,4.93 -4.54,8.16 0,1.12 0.21,2.24 0.62,3.3 -5.26,0.99 -9.12,5.09 -9.12,10.03 0,2.11 0.73,4.15 2.07,5.86 -2.44,2.52 -3.77,5.65 -3.77,8.96 0,5.34 3.64,10.09 9.08,12.15 -1.47,2.1 -2.28,4.6 -2.28,7.11 0,0.77 0.62,1.39 1.39,1.39 0.77,0 1.39,-0.62 1.39,-1.39l0 0z"/>
   <path class="fil0" d="M94.61 48.79c0,-3.31 -1.33,-6.44 -3.77,-8.96 1.34,-1.71 2.07,-3.75 2.07,-5.86 0,-4.94 -3.87,-9.04 -9.12,-10.03 0.41,-1.06 0.62,-2.17 0.62,-3.3 0,-5.67 -5.2,-10.27 -11.59,-10.27 -0.13,0 -0.26,0 -0.41,0.01 -0.35,-2.61 -1.72,-5.05 -3.92,-6.97 -2.48,-2.16 -5.71,-3.37 -9.09,-3.41 -0.06,-0 -0.12,-0 -0.18,-0 -5.04,0 -9.67,2.54 -11.91,6.52 -2.24,-3.98 -6.87,-6.52 -11.91,-6.52 -0.06,0 -0.12,0 -0.18,0 -3.38,0.04 -6.61,1.25 -9.09,3.41 -2.2,1.91 -3.57,4.35 -3.92,6.97 -0.14,-0 -0.28,-0.01 -0.41,-0.01 -0.77,0 -1.39,0.62 -1.39,1.39 0,0.77 0.62,1.39 1.39,1.39 0.42,0 1.01,0.04 1.54,0.11 0.42,0.05 0.83,-0.08 1.14,-0.37 0.3,-0.29 0.46,-0.7 0.43,-1.11l-0.01 -0.09c-0,-0.02 -0.01,-0.05 -0.01,-0.06 0.08,-4.72 4.83,-8.77 10.36,-8.84 4.18,-0.04 8,2.02 9.74,5.27 0.22,0.41 0.55,0.74 0.94,0.98l0 8.58c0,0.77 0.62,1.39 1.39,1.39 0.77,0 1.39,-0.62 1.39,-1.39l0 -8.58c0.39,-0.23 0.72,-0.57 0.94,-0.98 1.71,-3.21 5.46,-5.27 9.58,-5.27 0.05,0 0.1,0 0.15,0 5.53,0.07 10.28,4.12 10.36,8.83 -0.02,-0.02 -0.04,2.78 -1.53,4.56 -0.49,0.59 -0.41,1.46 0.17,1.95 0.26,0.22 0.57,0.32 0.89,0.32 0.4,0 0.79,-0.17 1.06,-0.5 1.29,-1.54 1.82,-3.46 2.03,-4.78 0.17,-0.01 0.32,-0.01 0.46,-0.01 4.86,0 8.82,3.37 8.82,7.5 0,1.28 -0.4,2.56 -1.15,3.69 -0.28,0.42 -0.31,0.96 -0.08,1.41 0.23,0.45 0.69,0.73 1.19,0.75 4.79,0.13 8.54,3.42 8.54,7.49 0,1.82 -0.78,3.57 -2.2,4.94 -0.01,0.01 -1.5,1.49 -3.43,1.64 -0.76,0.06 -1.33,0.73 -1.27,1.49 0.06,0.73 0.66,1.28 1.38,1.28 0.04,0 0.07,-0 0.11,-0 1.76,-0.14 3.2,-0.93 4.11,-1.57 1.94,2 3,4.46 3,7.03 0,4.7 -3.71,8.84 -9.02,10.08 -0.49,0.11 -0.88,0.48 -1.02,0.97 -0.14,0.48 -0.01,1 0.35,1.36 1.84,1.85 2.89,4.34 2.89,6.85 0,1.75 -0.52,3.49 -1.5,5.02 -0.41,0.64 -0.23,1.5 0.42,1.91 0.23,0.15 0.49,0.22 0.75,0.22 0.46,0 0.9,-0.23 1.17,-0.64 1.27,-1.98 1.94,-4.23 1.94,-6.51 0,-2.51 -0.81,-5.01 -2.28,-7.11 5.44,-2.06 9.08,-6.81 9.08,-12.15l0 -0z"/>
   <path class="fil0" d="M15.65 47.42c-0.04,0.76 0.54,1.42 1.31,1.46 0.03,0 0.05,0 0.08,0 0.73,0 1.34,-0.57 1.38,-1.31 0,-0.07 0.47,-6.98 7.46,-8.68 0.74,-0.18 1.2,-0.93 1.02,-1.67 -0.18,-0.74 -0.93,-1.2 -1.67,-1.02 -4.69,1.14 -7.04,4.13 -8.2,6.44 -1.23,2.47 -1.37,4.69 -1.38,4.78l0 0z"/>
   <path class="fil0" d="M37.12 15.36c-0.76,-0.07 -1.44,0.49 -1.51,1.25 -0.41,4.35 -4.91,6.02 -5.11,6.09 -0.72,0.25 -1.1,1.04 -0.85,1.76 0.2,0.57 0.74,0.93 1.31,0.93 0.15,0 0.31,-0.03 0.46,-0.08 0.26,-0.09 6.37,-2.3 6.95,-8.44 0.07,-0.76 -0.49,-1.44 -1.25,-1.51z"/>
   <path class="fil0" d="M36 77.12c0.19,0.09 0.4,0.13 0.59,0.13 0.52,0 1.01,-0.29 1.25,-0.79 0.33,-0.69 0.03,-1.52 -0.66,-1.85 -5.33,-2.54 -4.88,-8.57 -4.85,-8.83 0.07,-0.76 -0.49,-1.43 -1.25,-1.5 -0.76,-0.07 -1.44,0.49 -1.51,1.25 -0.03,0.33 -0.68,8.21 6.42,11.59l0 0z"/>
   <path class="fil0" d="M32.72 51.4c-0.69,0.33 -0.99,1.16 -0.66,1.85 0.24,0.5 0.73,0.79 1.25,0.79 0.2,0 0.4,-0.04 0.59,-0.13 4.49,-2.13 4.08,-7.09 4.06,-7.3 -0.07,-0.76 -0.75,-1.32 -1.51,-1.25 -0.76,0.07 -1.32,0.75 -1.25,1.51 0,0.03 0.27,3.23 -2.49,4.54z"/>
   <path class="fil0" d="M65.66 48.46c0,0.77 0.62,1.39 1.39,1.39 0.77,0 1.39,-0.62 1.39,-1.39 0,-0.77 -0.62,-1.39 -1.39,-1.39 -0.77,0 -1.39,0.62 -1.39,1.39z"/>
   <path class="fil0" d="M76.47 49.85c0.77,0 1.39,-0.62 1.39,-1.39 0,-0.77 -0.62,-1.39 -1.39,-1.39 -0.77,0 -1.39,0.62 -1.39,1.39 0,0.77 0.62,1.39 1.39,1.39z"/>
   <path class="fil0" d="M58.69 86.62c0,0.77 0.62,1.39 1.39,1.39 0.77,0 1.39,-0.62 1.39,-1.39 0,-0.77 -0.62,-1.39 -1.39,-1.39 -0.77,0 -1.39,0.62 -1.39,1.39z"/>
   <path class="fil0" d="M61.46 10.3c0,-0.77 -0.62,-1.39 -1.39,-1.39 -0.77,0 -1.39,0.62 -1.39,1.39 0,0.77 0.62,1.39 1.39,1.39 0.77,0 1.39,-0.62 1.39,-1.39z"/>
  </g>
 </g>
</svg>
