<?xml version="1.0" encoding="UTF-8"?>
<!DOCTYPE svg PUBLIC "-//W3C//DTD SVG 1.1//EN" "http://www.w3.org/Graphics/SVG/1.1/DTD/svg11.dtd">
<!-- Creator: CorelDRAW 2019 (64-Bit) -->
<svg xmlns="http://www.w3.org/2000/svg" xml:space="preserve" width="7.0556mm" height="7.0556mm" version="1.1" style="shape-rendering:geometricPrecision; text-rendering:geometricPrecision; image-rendering:optimizeQuality; fill-rule:evenodd; clip-rule:evenodd"
viewBox="0 0 11.7 11.7"
 xmlns:xlink="http://www.w3.org/1999/xlink">
 <defs>
  <style type="text/css">
   <![CDATA[
    .fil0 {fill:#B1F049}
   ]]>
  </style>
 </defs>
 <g id="Слой_x0020_1">
  <metadata id="CorelCorpID_0Corel-Layer"/>
  <g id="download-navi">
   <path class="fil0" d="M7.75 5.63c-0.08,-0.17 -0.25,-0.27 -0.44,-0.27l-0.98 0 0 -4.88c0,-0.27 -0.22,-0.49 -0.49,-0.49 -0.27,0 -0.49,0.22 -0.49,0.49l0 4.88 -0.98 0c-0.18,0 -0.35,0.1 -0.44,0.27 -0.08,0.17 -0.06,0.36 0.05,0.51l1.46 1.95c0.01,0.01 0.02,0.01 0.02,0.02 0.03,0.04 0.07,0.07 0.11,0.09 0.02,0.01 0.03,0.02 0.05,0.03 0.06,0.03 0.13,0.05 0.2,0.05 0.07,0 0.14,-0.02 0.2,-0.05 0.02,-0.01 0.03,-0.02 0.05,-0.03 0.04,-0.03 0.08,-0.06 0.11,-0.09 0.01,-0.01 0.02,-0.01 0.02,-0.02l1.46 -1.95c0.11,-0.15 0.13,-0.35 0.05,-0.51z"/>
   <path class="fil0" d="M11.21 7.31c-0.27,0 -0.49,0.22 -0.49,0.49l0 1.46c0,0.81 -0.66,1.46 -1.46,1.46l-6.83 0c-0.81,0 -1.46,-0.66 -1.46,-1.46l0 -1.46c0,-0.27 -0.22,-0.49 -0.49,-0.49 -0.27,0 -0.49,0.22 -0.49,0.49l0 1.46c0,1.34 1.09,2.44 2.44,2.44l6.83 0c1.34,0 2.44,-1.09 2.44,-2.44l0 -1.46c0,-0.27 -0.22,-0.49 -0.49,-0.49z"/>
  </g>
 </g>
</svg>
