<?xml version="1.0" encoding="UTF-8"?>
<!DOCTYPE svg PUBLIC "-//W3C//DTD SVG 1.1//EN" "http://www.w3.org/Graphics/SVG/1.1/DTD/svg11.dtd">
<!-- Creator: CorelDRAW 2019 (64-Bit) -->
<svg xmlns="http://www.w3.org/2000/svg" xml:space="preserve" width="19.4028mm" height="19.4028mm" version="1.1" style="shape-rendering:geometricPrecision; text-rendering:geometricPrecision; image-rendering:optimizeQuality; fill-rule:evenodd; clip-rule:evenodd"
viewBox="0 0 58.76 58.76"
 xmlns:xlink="http://www.w3.org/1999/xlink">
 <defs>
  <style type="text/css">
   <![CDATA[
    .fil0 {fill:#B1F049}
   ]]>
  </style>
 </defs>
 <g id="Слой_x0020_1">
  <metadata id="CorelCorpID_0Corel-Layer"/>
  <g id="download-navi">
   <path class="fil0" d="M38.92 28.29c-0.42,-0.83 -1.26,-1.35 -2.19,-1.35l-4.9 0 0 -24.49c0,-1.35 -1.09,-2.45 -2.45,-2.45 -1.35,0 -2.45,1.1 -2.45,2.45l0 24.49 -4.9 0c-0.93,0 -1.78,0.52 -2.19,1.35 -0.41,0.83 -0.32,1.82 0.23,2.56l7.35 9.79c0.03,0.04 0.08,0.06 0.12,0.1 0.16,0.19 0.35,0.34 0.57,0.47 0.09,0.05 0.16,0.12 0.25,0.17 0.31,0.15 0.66,0.24 1.03,0.24 0.37,0 0.71,-0.1 1.03,-0.24 0.09,-0.04 0.16,-0.12 0.25,-0.17 0.21,-0.13 0.4,-0.28 0.57,-0.47 0.03,-0.04 0.08,-0.05 0.12,-0.1l7.35 -9.79c0.56,-0.74 0.65,-1.73 0.23,-2.56z"/>
   <path class="fil0" d="M56.32 36.73c-1.35,0 -2.45,1.1 -2.45,2.45l0 7.35c0,4.05 -3.3,7.35 -7.35,7.35l-34.28 0c-4.05,0 -7.35,-3.3 -7.35,-7.35l0 -7.35c0,-1.35 -1.09,-2.45 -2.45,-2.45 -1.35,0 -2.45,1.1 -2.45,2.45l0 7.35c0,6.75 5.49,12.24 12.24,12.24l34.28 0c6.75,0 12.24,-5.49 12.24,-12.24l0 -7.35c0,-1.35 -1.09,-2.45 -2.45,-2.45z"/>
  </g>
 </g>
</svg>
