<?xml version="1.0" encoding="UTF-8"?>
<!DOCTYPE svg PUBLIC "-//W3C//DTD SVG 1.1//EN" "http://www.w3.org/Graphics/SVG/1.1/DTD/svg11.dtd">
<!-- Creator: CorelDRAW 2019 (64-Bit) -->
<svg xmlns="http://www.w3.org/2000/svg" xml:space="preserve" width="24.6944mm" height="24.6944mm" version="1.1" style="shape-rendering:geometricPrecision; text-rendering:geometricPrecision; image-rendering:optimizeQuality; fill-rule:evenodd; clip-rule:evenodd"
viewBox="0 0 110.52 110.52"
 xmlns:xlink="http://www.w3.org/1999/xlink">
 <defs>
  <style type="text/css">
   <![CDATA[
    .fil0 {fill:#B1F049}
   ]]>
  </style>
 </defs>
 <g id="Слой_x0020_1">
  <metadata id="CorelCorpID_0Corel-Layer"/>
  <path id="interview" class="fil0" d="M107.62 105.35c1.9,-2.41 2.9,-5.31 2.9,-8.38 0,-3.62 -1.41,-7.02 -3.96,-9.58 -2.17,-2.17 -4.95,-3.51 -7.95,-3.87l0 -1.71c0,-3.55 -2.89,-6.44 -6.44,-6.44l-14.29 0 0 -6.43c0,-0.06 -0,-0.12 -0.01,-0.17 1.03,-0.07 2.03,-0.25 3,-0.54 2.1,-0.64 4.03,-1.79 5.63,-3.39 0.19,-0.19 0.37,-0.39 0.55,-0.59 0.18,-0.2 0.35,-0.4 0.51,-0.61 0,-0 0,-0 0,-0 1.9,-2.41 2.9,-5.31 2.9,-8.38 0,-3.62 -1.41,-7.02 -3.96,-9.58 -2.33,-2.33 -5.36,-3.7 -8.61,-3.93l0 -1.65c0,-3.55 -2.89,-6.44 -6.44,-6.44l-14.39 0 0 -6.43c0,-0.06 -0,-0.12 -0.01,-0.18 3.22,-0.24 6.22,-1.61 8.53,-3.93 0.38,-0.38 0.73,-0.78 1.06,-1.2 0,-0 0,-0 0,-0 1.9,-2.41 2.9,-5.31 2.9,-8.38 0,-3.62 -1.41,-7.02 -3.96,-9.58 -2.56,-2.56 -5.95,-3.97 -9.56,-3.97 -3.61,0 -7.01,1.41 -9.56,3.97 -2.56,2.56 -3.96,5.96 -3.96,9.58 0,3.08 1,5.97 2.9,8.38 2.13,2.71 5.14,4.46 8.46,4.99 -0.02,0.1 -0.03,0.2 -0.03,0.31l0 6.43 -14.48 0c-3.55,0 -6.44,2.89 -6.44,6.44l0 1.79c-2.78,0.45 -5.34,1.76 -7.37,3.79 -2.56,2.56 -3.96,5.96 -3.96,9.58 0,3.08 1,5.97 2.9,8.38 2.11,2.68 5.08,4.43 8.37,4.98 -0.02,0.1 -0.03,0.21 -0.03,0.32l0 6.43 -14.48 0c-3.55,0 -6.44,2.89 -6.44,6.44l0 1.71c-3,0.36 -5.78,1.7 -7.95,3.87 -2.55,2.56 -3.96,5.96 -3.96,9.58 0,3.08 1,5.97 2.9,8.38 0.48,0.62 1.01,1.18 1.58,1.69 2.46,2.23 5.66,3.47 9.04,3.47l0 0c2.42,0 4.75,-0.64 6.79,-1.83 1,-0.58 1.93,-1.3 2.77,-2.14 0.38,-0.38 0.74,-0.78 1.06,-1.2 0,-0 0,-0 0,-0 0,-0 0,-0 0,-0 0,0 0,-0 0,-0 1.9,-2.41 2.9,-5.31 2.9,-8.38 0,-0.89 -0.72,-1.62 -1.62,-1.62 -0.89,0 -1.62,0.73 -1.62,1.62 0,1.69 -0.4,3.3 -1.16,4.76 -1.36,-1.25 -2.93,-2.18 -4.62,-2.78 0.54,-0.85 0.84,-1.86 0.84,-2.88 0,-1.43 -0.55,-2.77 -1.56,-3.78 -1.01,-1.01 -2.35,-1.57 -3.78,-1.57 -1.43,0 -2.77,0.56 -3.78,1.57 -1.01,1.01 -1.57,2.35 -1.57,3.78 0,1.02 0.3,2.02 0.84,2.88 -1.7,0.6 -3.27,1.54 -4.63,2.78 -0.76,-1.46 -1.16,-3.08 -1.16,-4.76 0,-2.75 1.07,-5.34 3.02,-7.29 1.94,-1.95 4.53,-3.02 7.27,-3.02 2.75,0 5.33,1.07 7.27,3.02 0.41,0.41 0.79,0.86 1.12,1.33 0.52,0.73 1.53,0.9 2.26,0.39 0.73,-0.52 0.9,-1.53 0.39,-2.26 -0.44,-0.62 -0.93,-1.21 -1.47,-1.75 -2.17,-2.17 -4.95,-3.51 -7.95,-3.87l0 -1.71c0,-1.77 1.43,-3.21 3.2,-3.21l35.39 0 0 4.91c-3,0.36 -5.78,1.7 -7.95,3.87 -2.56,2.56 -3.96,5.96 -3.96,9.58 0,3.08 1,5.97 2.9,8.38 2.58,3.28 6.46,5.16 10.63,5.16 1.35,0 2.68,-0.2 3.94,-0.58 2.1,-0.64 4.03,-1.79 5.63,-3.39 0.2,-0.2 0.38,-0.4 0.57,-0.6 0.17,-0.19 0.34,-0.39 0.49,-0.59 0,-0 0,-0 0,-0 1.9,-2.41 2.9,-5.31 2.9,-8.38 0,-3.62 -1.41,-7.02 -3.96,-9.58 -2.17,-2.17 -4.95,-3.51 -7.95,-3.87l0 -4.91 35.21 -0c1.76,0 3.2,1.44 3.2,3.21l0 1.71c-3,0.36 -5.78,1.7 -7.95,3.87 -2.56,2.56 -3.96,5.96 -3.96,9.58 0,3.08 1,5.97 2.9,8.38 2.58,3.28 6.46,5.16 10.63,5.16 1.35,0 2.68,-0.2 3.94,-0.58 2.1,-0.64 4.03,-1.79 5.63,-3.39 0.38,-0.38 0.74,-0.78 1.06,-1.2 0,-0 0,-0 0,-0 0,0 0,-0 0,-0 0,0 0,-0 0,-0l0 0zm-49.95 -91.4c-0.05,0.06 -0.11,0.13 -0.16,0.19 -0.4,0.4 -0.93,0.62 -1.49,0.62 -0.65,0 -1.25,-0.29 -1.65,-0.81 -0.3,-0.37 -0.45,-0.83 -0.45,-1.31 0,-0.56 0.22,-1.1 0.62,-1.49 0.4,-0.4 0.93,-0.62 1.49,-0.62 0.56,0 1.09,0.22 1.49,0.62 0.4,0.4 0.62,0.93 0.62,1.49 0,0.48 -0.16,0.93 -0.45,1.31l-0 0zm-1.65 4.04c2.7,0 5.25,1.04 7.18,2.93 -1.93,1.89 -4.48,2.93 -7.18,2.93 -2.72,0 -5.27,-1.06 -7.18,-2.93 1.93,-1.89 4.48,-2.93 7.18,-2.93l0 0zm-7.27 -11.74c1.94,-1.95 4.53,-3.02 7.27,-3.02 2.75,0 5.33,1.07 7.27,3.02 1.94,1.95 3.01,4.54 3.01,7.29 0,1.69 -0.4,3.3 -1.16,4.76 -1.36,-1.25 -2.93,-2.19 -4.63,-2.78 0.54,-0.86 0.84,-1.86 0.84,-2.88 0,-1.43 -0.56,-2.77 -1.56,-3.78 -1.01,-1.01 -2.35,-1.57 -3.78,-1.57 -1.43,0 -2.77,0.56 -3.78,1.57 -1.01,1.01 -1.57,2.35 -1.57,3.78 0,1.02 0.3,2.02 0.84,2.88 -1.7,0.6 -3.27,1.54 -4.63,2.78 -0.76,-1.46 -1.16,-3.08 -1.16,-4.76 0,-2.75 1.07,-5.34 3.02,-7.29l0 0zm-35.22 95.17c2.7,0 5.25,1.04 7.18,2.93 -1.93,1.89 -4.48,2.93 -7.18,2.93 -2.72,0 -5.27,-1.05 -7.18,-2.93 1.93,-1.89 4.48,-2.93 7.18,-2.93l0 0zm-1.49 -6.84c0.4,-0.4 0.93,-0.62 1.49,-0.62 0.56,0 1.09,0.22 1.49,0.62 0.4,0.4 0.62,0.93 0.62,1.49 0,0.48 -0.16,0.93 -0.45,1.31 -0.05,0.06 -0.11,0.13 -0.17,0.19 -0.4,0.4 -0.93,0.62 -1.49,0.62 -0.65,0 -1.25,-0.29 -1.65,-0.81 -0.29,-0.37 -0.45,-0.83 -0.45,-1.31 0,-0.56 0.22,-1.1 0.62,-1.49l0 0zm44.97 2.8c-0.05,0.06 -0.11,0.13 -0.16,0.19 -0.4,0.4 -0.93,0.62 -1.49,0.62 -0.65,0 -1.25,-0.29 -1.65,-0.81 -0.3,-0.37 -0.45,-0.83 -0.45,-1.31 0,-0.56 0.22,-1.09 0.62,-1.49 0.4,-0.4 0.93,-0.62 1.49,-0.62 0.56,0 1.09,0.22 1.49,0.62 0.4,0.4 0.62,0.93 0.62,1.49 0,0.48 -0.16,0.93 -0.45,1.31l0 0zm-1.65 4.04c2.7,0 5.25,1.04 7.18,2.93 -1.93,1.89 -4.48,2.93 -7.18,2.93 -2.72,0 -5.27,-1.05 -7.18,-2.93 1.93,-1.89 4.48,-2.93 7.18,-2.93l0 0zm10.29 -4.45c0,1.69 -0.4,3.3 -1.16,4.76 -1.36,-1.25 -2.93,-2.18 -4.63,-2.78 0.54,-0.86 0.84,-1.86 0.84,-2.88 0,-1.43 -0.56,-2.77 -1.56,-3.78 -1.01,-1.01 -2.35,-1.57 -3.78,-1.57 -1.43,0 -2.77,0.56 -3.78,1.57 -1.01,1.01 -1.56,2.35 -1.56,3.78 0,1.02 0.3,2.02 0.84,2.88 -1.7,0.6 -3.27,1.54 -4.63,2.78 -0.76,-1.46 -1.16,-3.08 -1.16,-4.76 0,-2.75 1.07,-5.34 3.02,-7.29 1.94,-1.95 4.53,-3.02 7.27,-3.02 2.75,0 5.33,1.07 7.27,3.02 1.94,1.95 3.01,4.54 3.01,7.29l0 0zm12.95 -41.31c-0.05,0.07 -0.11,0.13 -0.17,0.19 -0.4,0.4 -0.93,0.62 -1.49,0.62 -0.65,0 -1.25,-0.29 -1.65,-0.81 -0.3,-0.37 -0.45,-0.83 -0.45,-1.31 0,-0.56 0.22,-1.09 0.62,-1.49 0.4,-0.4 0.93,-0.62 1.49,-0.62 0.56,0 1.09,0.22 1.49,0.62 0.4,0.4 0.62,0.93 0.62,1.49 0,0.48 -0.16,0.93 -0.45,1.31l0 0zm-1.65 4.04c2.7,0 5.25,1.04 7.18,2.93 -1.93,1.89 -4.48,2.93 -7.18,2.93 -2.72,0 -5.27,-1.05 -7.18,-2.93 1.93,-1.89 4.48,-2.93 7.18,-2.93l0 0zm-49.1 -11.74c1.94,-1.95 4.53,-3.02 7.27,-3.02 2.75,0 5.33,1.07 7.27,3.02 1.94,1.95 3.01,4.54 3.01,7.29 0,1.69 -0.4,3.31 -1.16,4.76 -1.36,-1.25 -2.93,-2.18 -4.63,-2.78 0.54,-0.86 0.84,-1.86 0.84,-2.88 0,-1.43 -0.56,-2.77 -1.56,-3.78 -1.01,-1.01 -2.35,-1.57 -3.78,-1.57 -1.43,0 -2.77,0.56 -3.78,1.57 -1.01,1.01 -1.56,2.35 -1.56,3.78 0,1.02 0.3,2.02 0.84,2.88 -1.7,0.6 -3.27,1.54 -4.63,2.78 -0.76,-1.46 -1.16,-3.08 -1.16,-4.76 0,-2.75 1.07,-5.34 3.02,-7.29l0 0zm8.93 7.7c-0.05,0.06 -0.11,0.13 -0.16,0.19 -0.4,0.4 -0.93,0.62 -1.49,0.62 -0.65,0 -1.25,-0.29 -1.65,-0.81 -0.29,-0.37 -0.45,-0.83 -0.45,-1.31 0,-0.56 0.22,-1.1 0.62,-1.49 0.4,-0.4 0.93,-0.62 1.49,-0.62 0.56,0 1.09,0.22 1.49,0.62 0.4,0.4 0.62,0.93 0.62,1.49 0,0.48 -0.16,0.93 -0.45,1.31l0 0zm-1.65 4.04c2.7,0 5.25,1.04 7.18,2.93 -1.93,1.89 -4.48,2.93 -7.18,2.93 -2.72,0 -5.27,-1.05 -7.18,-2.93 1.93,-1.89 4.48,-2.93 7.18,-2.93zm0.94 9.06c1.03,-0.07 2.03,-0.25 3,-0.54 2.1,-0.64 4.03,-1.79 5.63,-3.39 0.26,-0.26 0.5,-0.53 0.74,-0.81 0.11,-0.13 0.22,-0.26 0.32,-0.39 0,-0 0,-0 0,-0 1.9,-2.41 2.9,-5.31 2.9,-8.38 0,-3.62 -1.41,-7.02 -3.96,-9.58 -2.31,-2.31 -5.3,-3.68 -8.52,-3.92l0 -1.65c0,-1.77 1.43,-3.21 3.2,-3.21l32.1 0c1.76,0 3.2,1.44 3.2,3.21l0 1.8c-0.85,0.14 -1.68,0.37 -2.48,0.67 -0.84,0.32 -1.26,1.25 -0.94,2.09 0.32,0.84 1.25,1.26 2.09,0.94 1.16,-0.44 2.38,-0.66 3.62,-0.66 2.75,0 5.33,1.07 7.27,3.02 1.94,1.95 3.01,4.54 3.01,7.29 0,1.69 -0.4,3.3 -1.16,4.76 -1.36,-1.25 -2.93,-2.18 -4.62,-2.78 0.54,-0.85 0.84,-1.86 0.84,-2.88 0,-1.43 -0.55,-2.77 -1.56,-3.78 -1.01,-1.01 -2.35,-1.57 -3.78,-1.57 -1.43,0 -2.77,0.56 -3.78,1.57 -1.01,1.01 -1.57,2.35 -1.57,3.78 0,1.02 0.3,2.02 0.84,2.88 -1.7,0.6 -3.27,1.54 -4.63,2.78 -0.76,-1.46 -1.16,-3.08 -1.16,-4.76 0,-2.18 0.67,-4.27 1.94,-6.03 0.52,-0.73 0.36,-1.74 -0.37,-2.26 -0.73,-0.52 -1.74,-0.36 -2.26,0.37 -1.67,2.32 -2.55,5.06 -2.55,7.92 0,3.08 1,5.97 2.9,8.38 2.11,2.68 5.08,4.43 8.37,4.98 -0.02,0.1 -0.03,0.21 -0.03,0.32l0 6.43 -38.59 0 0 -6.43c0,-0.06 -0,-0.12 -0.01,-0.17zm53.67 20.92c1.94,-1.95 4.53,-3.02 7.27,-3.02 2.75,0 5.33,1.07 7.27,3.02 1.94,1.95 3.01,4.54 3.01,7.29 0,1.69 -0.4,3.3 -1.16,4.76 -1.36,-1.25 -2.93,-2.18 -4.63,-2.78 0.54,-0.86 0.84,-1.86 0.84,-2.88 0,-1.43 -0.56,-2.77 -1.56,-3.78 -1.01,-1.01 -2.35,-1.57 -3.78,-1.57 -1.43,0 -2.77,0.56 -3.78,1.57 -1.01,1.01 -1.56,2.35 -1.56,3.78 0,1.02 0.3,2.02 0.84,2.88 -1.7,0.6 -3.27,1.54 -4.63,2.78 -0.76,-1.46 -1.16,-3.08 -1.16,-4.76 0,-2.75 1.07,-5.34 3.02,-7.29l0 0zm8.93 7.7c-0.05,0.06 -0.11,0.13 -0.16,0.19 -0.4,0.4 -0.93,0.62 -1.49,0.62 -0.65,0 -1.25,-0.29 -1.65,-0.81 -0.3,-0.37 -0.45,-0.83 -0.45,-1.31 0,-0.56 0.22,-1.09 0.62,-1.49 0.4,-0.4 0.93,-0.62 1.49,-0.62 0.56,0 1.09,0.22 1.49,0.62 0.4,0.4 0.62,0.93 0.62,1.49 0,0.48 -0.16,0.93 -0.45,1.31l0 0zm-1.65 4.04c2.7,0 5.25,1.04 7.18,2.93 -1.93,1.89 -4.48,2.93 -7.18,2.93 -2.72,0 -5.27,-1.05 -7.18,-2.93 1.93,-1.89 4.48,-2.93 7.18,-2.93l0 0z"/>
 </g>
</svg>
