<?xml version="1.0" encoding="UTF-8"?>
<!DOCTYPE svg PUBLIC "-//W3C//DTD SVG 1.1//EN" "http://www.w3.org/Graphics/SVG/1.1/DTD/svg11.dtd">
<!-- Creator: CorelDRAW 2019 (64-Bit) -->
<svg xmlns="http://www.w3.org/2000/svg" xml:space="preserve" width="91.822mm" height="15.8494mm" version="1.1" style="shape-rendering:geometricPrecision; text-rendering:geometricPrecision; image-rendering:optimizeQuality; fill-rule:evenodd; clip-rule:evenodd"
viewBox="0 0 1312.43 226.54"
 xmlns:xlink="http://www.w3.org/1999/xlink">
 <defs>
  <style type="text/css">
   <![CDATA[
    .fil2 {fill:#B1F049}
    .fil3 {fill:white}
    .fil0 {fill:#B1F049;fill-rule:nonzero}
    .fil1 {fill:white;fill-rule:nonzero}
   ]]>
  </style>
 </defs>
 <g id="Слой_x0020_1">
  <metadata id="CorelCorpID_0Corel-Layer"/>
  <g id="logo-navi">
   <path class="fil0" d="M869.67 222.56c0,0 -0.6,0 -1.79,0 -1.19,0 -2.69,-0.3 -4.48,-0.9 -1.79,-0.6 -3.56,-1.68 -5.29,-3.26 -1.74,-1.58 -3.1,-3.88 -4.07,-6.92 -0.98,-2.93 -2.17,-6.71 -3.58,-11.32 -1.41,-4.62 -2.66,-9.67 -3.75,-15.15 -1.09,-5.48 -1.71,-11.13 -1.87,-16.94 -0.16,-5.81 0.46,-11.43 1.87,-16.86 1.41,-5.43 3.96,-10.26 7.66,-14.5 3.26,-3.8 6.87,-6.41 10.83,-7.82 3.96,-1.41 7.74,-2.12 11.32,-2.12 3.58,0 6.54,0.22 8.88,0.65 2.34,0.43 3.5,0.65 3.5,0.65 0,0 0.54,0.24 1.63,0.73 1.09,0.49 2.17,1.17 3.26,2.04 1.08,0.87 1.68,1.82 1.79,2.85 0.11,1.03 -0.81,2.09 -2.77,3.18 -2.61,1.41 -5.21,2.47 -7.82,3.18 -2.61,0.71 -4.94,1.58 -7,2.61 -2.06,1.03 -3.64,2.85 -4.72,5.46 -1.3,3.15 -2.23,6.03 -2.77,8.63 -0.54,2.61 -0.81,5.48 -0.81,8.63 0,3.15 0.22,7.11 0.65,11.89 0,0 0.95,-0.24 2.85,-0.73 1.9,-0.49 4.13,-0.84 6.68,-1.06 2.55,-0.22 4.94,0 7.17,0.65 2.23,0.65 3.66,2.06 4.32,4.24 0.65,2.06 0.11,3.75 -1.63,5.05 -1.74,1.3 -3.91,2.31 -6.51,3.01 -2.61,0.71 -4.94,1.19 -7.01,1.47 -2.06,0.27 -3.09,0.41 -3.09,0.41l7.33 22.97c0,0 0.11,0.46 0.33,1.39 0.22,0.92 0.16,2.01 -0.16,3.26 -0.33,1.25 -1.3,2.33 -2.93,3.26 -1.63,0.92 -4.29,1.39 -7.98,1.39zm65.81 -67.28c5.43,-0.11 10.05,0.35 13.85,1.39 3.8,1.03 6.95,2.25 9.45,3.66 2.5,1.41 4.45,2.66 5.86,3.75 1.41,1.09 2.44,1.63 3.09,1.63 1.19,0.11 2.06,0.68 2.61,1.71 0.54,1.03 0.81,1.55 0.81,1.55 0,0 0.16,1.08 0.49,3.26 0.33,2.17 0.73,4.94 1.22,8.31 0.49,3.37 0.95,6.9 1.39,10.59 0.43,3.69 0.81,7.17 1.14,10.43 0.33,3.26 0.49,5.81 0.49,7.66 0,3.04 -0.19,5.48 -0.57,7.33 -0.38,1.85 -1.49,3.23 -3.34,4.15 -1.85,0.92 -4.89,1.55 -9.12,1.87 -3.15,0.22 -5.43,0.16 -6.84,-0.16 -1.41,-0.33 -2.28,-0.71 -2.61,-1.14 -0.33,-0.43 -0.49,-0.65 -0.49,-0.65 -0.98,0.76 -2.58,1.28 -4.81,1.55 -2.23,0.27 -4.32,0.41 -6.27,0.41 -1.96,0 -2.93,0 -2.93,0 0,0 -1.25,-0.19 -3.75,-0.57 -2.5,-0.38 -5.57,-1.19 -9.2,-2.44 -3.64,-1.25 -7.28,-3.15 -10.91,-5.7 -3.64,-2.55 -6.65,-5.97 -9.04,-10.26 -2.39,-4.29 -3.53,-9.64 -3.42,-16.05 0.11,-6.41 1.3,-11.65 3.58,-15.72 2.28,-4.07 5.05,-7.25 8.31,-9.53 3.26,-2.28 6.49,-3.91 9.69,-4.89 3.2,-0.98 5.89,-1.58 8.06,-1.79 2.17,-0.22 3.26,-0.33 3.26,-0.33zm12.22 16.78c-0.54,-0.76 -1.71,-1.6 -3.5,-2.53 -1.79,-0.92 -3.47,-1.71 -5.05,-2.36 -1.58,-0.65 -2.36,-0.87 -2.36,-0.65 0,0.11 -0.57,1 -1.71,2.69 -1.14,1.68 -2.28,4.13 -3.42,7.33 -1.14,3.2 -1.77,7.03 -1.87,11.48 -0.11,4.45 0.49,8.31 1.79,11.57 1.3,3.26 2.9,5.75 4.81,7.49 1.9,1.74 3.66,2.61 5.29,2.61 1.19,0 2.33,-0.57 3.42,-1.71 1.09,-1.14 2.01,-2.44 2.77,-3.91 0.76,-1.47 1.36,-2.74 1.79,-3.83 0.43,-1.08 0.65,-1.63 0.65,-1.63l-2.61 -26.55zm42.35 39.42c0,-1.19 -0.16,-3.26 -0.49,-6.19 -0.33,-2.93 -0.73,-6.27 -1.22,-10.02 -0.49,-3.75 -1,-7.49 -1.55,-11.24 -0.54,-3.75 -1.11,-7.11 -1.71,-10.1 -0.6,-2.99 -1.11,-5.13 -1.55,-6.43 -1.09,-3.26 -0.46,-5.57 1.87,-6.92 2.33,-1.36 5.62,-2.25 9.86,-2.69 4.24,-0.43 7.3,-0.14 9.2,0.9 1.9,1.03 2.85,1.55 2.85,1.55 1.63,-1.63 4.32,-2.77 8.06,-3.42 3.75,-0.65 7.68,-0.92 11.81,-0.81 5.32,0.11 9.18,0.92 11.56,2.44 2.39,1.52 3.58,3.15 3.58,4.89 0,1.3 -0.16,2.28 -0.49,2.93 -0.33,0.65 -1.6,1.28 -3.83,1.87 -2.23,0.6 -6.22,1.6 -11.97,3.01 -3.37,0.76 -5.86,2.58 -7.49,5.46 -1.63,2.88 -2.63,6.19 -3.01,9.94 -0.38,3.75 -0.41,7.44 -0.08,11.08 0.33,3.64 0.71,6.68 1.14,9.12 0.43,2.44 0.65,3.77 0.65,3.99 0,0.22 0.08,0.95 0.24,2.2 0.16,1.25 0,2.61 -0.49,4.07 -0.49,1.47 -1.66,2.74 -3.5,3.83 -1.85,1.09 -4.78,1.63 -8.8,1.63 -4.02,0 -7.06,-0.57 -9.12,-1.71 -2.06,-1.14 -3.47,-2.42 -4.24,-3.83 -0.76,-1.41 -1.17,-2.69 -1.22,-3.83 -0.05,-1.14 -0.08,-1.71 -0.08,-1.71zm77.54 11.08c0,0 -0.68,0.03 -2.04,0.08 -1.36,0.05 -2.93,-0.14 -4.72,-0.57 -1.79,-0.43 -3.42,-1.33 -4.89,-2.69 -1.47,-1.36 -2.36,-3.45 -2.69,-6.27 -0.22,-2.28 -0.46,-5.32 -0.73,-9.12 -0.27,-3.8 -0.57,-7.85 -0.9,-12.14 -0.33,-4.29 -0.6,-8.33 -0.81,-12.14 -0.22,-3.8 -0.41,-6.92 -0.57,-9.37 -0.16,-2.44 -0.24,-3.66 -0.24,-3.66 0,0 -0.03,-0.49 -0.08,-1.47 -0.05,-0.98 0.16,-2.14 0.65,-3.5 0.49,-1.36 1.49,-2.58 3.01,-3.66 1.52,-1.09 3.91,-1.68 7.17,-1.79 4.34,-0.22 7.55,0.05 9.61,0.81 2.06,0.76 3.45,1.58 4.15,2.44 0.71,0.87 1.06,1.3 1.06,1.3 0,0 0.84,-0.43 2.53,-1.3 1.68,-0.87 3.99,-1.71 6.92,-2.52 2.93,-0.81 6.19,-1.22 9.77,-1.22 4.13,0 7.52,0.43 10.18,1.3 2.66,0.87 4.64,1.74 5.95,2.61 1.3,0.87 1.96,1.3 1.96,1.3 3.15,-1.96 6.38,-3.09 9.69,-3.42 3.31,-0.33 7.09,-0.49 11.32,-0.49 0,0 1.09,0.14 3.26,0.41 2.17,0.27 4.89,0.95 8.14,2.04 3.26,1.09 6.54,2.85 9.86,5.29 3.31,2.44 6.11,5.81 8.39,10.1 2.28,4.29 3.47,9.8 3.58,16.53 0.22,8.47 0,14.88 -0.65,19.22 -0.65,4.34 -1.57,7.33 -2.77,8.96 -1.19,1.63 -2.66,2.52 -4.4,2.69 -1.74,0.16 -3.64,0.24 -5.7,0.24 -4.13,0 -7.63,-0.9 -10.51,-2.69 -2.88,-1.79 -3.99,-4.54 -3.34,-8.23 0.22,-1.41 0.41,-3.69 0.57,-6.84 0.16,-3.15 0.14,-6.6 -0.08,-10.34 -0.22,-3.75 -0.7,-7.33 -1.47,-10.75 -0.76,-3.42 -1.9,-6.24 -3.42,-8.47 -1.52,-2.23 -3.53,-3.28 -6.03,-3.18 -1.85,0 -3.29,0.73 -4.32,2.2 -1.03,1.47 -1.76,2.91 -2.2,4.32 -0.43,1.41 -0.65,2.12 -0.65,2.12l2.12 30.95c0,0 0.03,0.54 0.08,1.63 0.05,1.09 -0.19,2.36 -0.73,3.83 -0.54,1.47 -1.74,2.74 -3.58,3.83 -1.85,1.09 -4.72,1.63 -8.63,1.63 -3.91,0 -6.87,-0.49 -8.88,-1.47 -2.01,-0.98 -3.39,-2.12 -4.15,-3.42 -0.76,-1.3 -1.19,-2.44 -1.3,-3.42 -0.11,-0.98 -0.16,-1.52 -0.16,-1.63 0,-0.11 0.05,-1.22 0.16,-3.34 0.11,-2.12 0.19,-4.81 0.24,-8.06 0.05,-3.26 -0.08,-6.7 -0.41,-10.34 -0.33,-3.64 -0.9,-7.06 -1.71,-10.26 -0.81,-3.2 -2.01,-5.7 -3.58,-7.49 -1.58,-1.79 -3.66,-2.53 -6.27,-2.2 -2.5,0.33 -4.29,1.11 -5.38,2.36 -1.08,1.25 -1.76,2.42 -2.04,3.5 -0.27,1.09 -0.41,1.63 -0.41,1.63l2.61 34.37c0,0 0.03,0.49 0.08,1.47 0.05,0.98 -0.22,2.12 -0.81,3.42 -0.6,1.3 -1.79,2.44 -3.58,3.42 -1.79,0.98 -4.53,1.47 -8.23,1.47zm172.83 -49.19c-0.33,5.43 -1.85,9.8 -4.56,13.11 -2.71,3.31 -6,5.81 -9.86,7.49 -3.85,1.68 -7.68,2.82 -11.48,3.42 -3.8,0.6 -6.98,0.9 -9.53,0.9 -2.55,0 -3.83,0 -3.83,0 0.65,3.8 1.58,6.51 2.77,8.14 1.19,1.63 2.52,2.55 3.99,2.77 1.47,0.22 2.85,0.08 4.15,-0.41 1.3,-0.49 2.36,-1.06 3.18,-1.71 0.81,-0.65 1.22,-0.98 1.22,-0.98 0,0 0.6,-0.49 1.79,-1.47 1.19,-0.98 3.07,-1.93 5.62,-2.85 2.55,-0.92 5.78,-1.39 9.69,-1.39 4.45,0 7.47,0.57 9.04,1.71 1.58,1.14 2.34,2.44 2.28,3.91 -0.05,1.47 -0.38,2.77 -0.98,3.91 -0.6,1.14 -0.9,1.71 -0.9,1.71 0,0 -0.46,0.52 -1.39,1.55 -0.92,1.03 -2.58,2.25 -4.97,3.66 -2.39,1.41 -5.7,2.69 -9.94,3.83 -4.24,1.14 -9.67,1.77 -16.29,1.87 -6.41,0.11 -11.78,-0.76 -16.13,-2.61 -4.34,-1.85 -7.93,-4.26 -10.75,-7.25 -2.82,-2.99 -4.97,-6.14 -6.43,-9.45 -1.47,-3.31 -2.5,-6.41 -3.1,-9.28 -0.6,-2.88 -0.89,-5.13 -0.89,-6.76 0,-1.63 0.14,-3.75 0.41,-6.35 0.27,-2.61 0.98,-5.35 2.12,-8.23 1.14,-2.88 2.91,-5.62 5.29,-8.23 2.39,-2.61 5.67,-4.72 9.86,-6.35 4.18,-1.63 9.53,-2.5 16.05,-2.61 8.14,-0.11 14.5,0.6 19.06,2.12 4.56,1.52 7.87,3.37 9.94,5.54 2.06,2.17 3.34,4.24 3.83,6.19 0.49,1.96 0.73,3.31 0.73,4.07zm-41.54 13.68c6.62,-0.54 11.56,-1.96 14.82,-4.24 3.26,-2.28 5.16,-4.83 5.7,-7.66 0.54,-2.82 0.03,-5.24 -1.55,-7.25 -1.58,-2.01 -3.94,-2.91 -7.09,-2.69 -3.15,0.11 -5.54,1.28 -7.17,3.5 -1.63,2.23 -2.77,4.78 -3.42,7.66 -0.65,2.88 -1.03,5.38 -1.14,7.49 -0.11,2.12 -0.16,3.18 -0.16,3.18zm61.25 24.43c0,-1.19 -0.16,-3.26 -0.49,-6.19 -0.33,-2.93 -0.73,-6.27 -1.22,-10.02 -0.49,-3.75 -1,-7.49 -1.55,-11.24 -0.54,-3.75 -1.11,-7.11 -1.71,-10.1 -0.6,-2.99 -1.11,-5.13 -1.55,-6.43 -1.09,-3.26 -0.46,-5.57 1.87,-6.92 2.33,-1.36 5.62,-2.25 9.86,-2.69 4.24,-0.43 7.3,-0.14 9.2,0.9 1.9,1.03 2.85,1.55 2.85,1.55 1.63,-1.63 4.32,-2.77 8.06,-3.42 3.75,-0.65 7.68,-0.92 11.81,-0.81 5.32,0.11 9.18,0.92 11.56,2.44 2.39,1.52 3.58,3.15 3.58,4.89 0,1.3 -0.16,2.28 -0.49,2.93 -0.33,0.65 -1.6,1.28 -3.83,1.87 -2.23,0.6 -6.22,1.6 -11.97,3.01 -3.37,0.76 -5.86,2.58 -7.49,5.46 -1.63,2.88 -2.63,6.19 -3.01,9.94 -0.38,3.75 -0.41,7.44 -0.08,11.08 0.33,3.64 0.71,6.68 1.14,9.12 0.43,2.44 0.65,3.77 0.65,3.99 0,0.22 0.08,0.95 0.24,2.2 0.16,1.25 0,2.61 -0.49,4.07 -0.49,1.47 -1.66,2.74 -3.5,3.83 -1.85,1.09 -4.78,1.63 -8.8,1.63 -4.02,0 -7.06,-0.57 -9.12,-1.71 -2.06,-1.14 -3.47,-2.42 -4.24,-3.83 -0.76,-1.41 -1.17,-2.69 -1.22,-3.83 -0.05,-1.14 -0.08,-1.71 -0.08,-1.71z"/>
   <path class="fil1" d="M283.06 224.06c-2.06,0 -3.8,-0.71 -5.21,-2.12 -1.41,-1.41 -2.12,-3.15 -2.12,-5.21l0 -99.69c0,-2.06 0.71,-3.83 2.12,-5.29 1.41,-1.47 3.15,-2.2 5.21,-2.2l37.14 0c10.32,0 18.73,1.74 25.25,5.21 6.52,3.48 11.19,7.93 14.01,13.36 2.82,5.43 4.24,11.29 4.24,17.59 0,6.3 -1.41,12.16 -4.24,17.59 -2.82,5.43 -7.49,9.88 -14.01,13.36 -6.52,3.47 -14.93,5.21 -25.25,5.21l-29.65 0 0 34.86c0,2.06 -0.73,3.8 -2.2,5.21 -1.47,1.41 -3.23,2.12 -5.29,2.12zm35.67 -56.2c11.08,0 18.87,-2.12 23.38,-6.35 4.51,-4.24 6.76,-9.5 6.76,-15.8 0,-6.3 -2.25,-11.56 -6.76,-15.8 -4.51,-4.24 -12.3,-6.35 -23.38,-6.35l-28.18 0 0 44.31 28.18 0zm116.8 57.01c-11.4,0 -21.39,-2.5 -29.97,-7.49 -8.58,-5 -15.2,-11.89 -19.87,-20.69 -4.67,-8.8 -7.11,-18.9 -7.33,-30.3 0.22,-11.4 2.66,-21.5 7.33,-30.3 4.67,-8.8 11.29,-15.69 19.87,-20.69 8.58,-5 18.57,-7.49 29.97,-7.49 11.4,0 21.37,2.5 29.89,7.49 8.52,5 15.15,11.92 19.87,20.77 4.72,8.85 7.2,18.92 7.41,30.22 -0.22,11.29 -2.69,21.37 -7.41,30.22 -4.72,8.85 -11.35,15.77 -19.87,20.77 -8.52,5 -18.49,7.49 -29.89,7.49zm0 -13.85c8.69,0 16.24,-1.95 22.64,-5.86 6.41,-3.91 11.29,-9.23 14.66,-15.96 3.37,-6.73 5.05,-14.33 5.05,-22.81 0,-8.47 -1.68,-16.07 -5.05,-22.8 -3.37,-6.73 -8.25,-12.05 -14.66,-15.96 -6.41,-3.91 -13.96,-5.86 -22.64,-5.86 -8.8,0 -16.37,1.96 -22.72,5.86 -6.35,3.91 -11.21,9.23 -14.58,15.96 -3.37,6.73 -5.05,14.33 -5.05,22.8 0,8.47 1.68,16.07 5.05,22.81 3.37,6.73 8.23,12.05 14.58,15.96 6.35,3.91 13.93,5.86 22.72,5.86zm89.27 13.03c-2.06,0 -3.8,-0.71 -5.21,-2.12 -1.41,-1.41 -2.12,-3.15 -2.12,-5.21l0 -100.51c0,-2.06 0.71,-3.83 2.12,-5.29 1.41,-1.47 3.15,-2.2 5.21,-2.2 2.06,0 3.83,0.73 5.29,2.2 1.47,1.47 2.2,3.23 2.2,5.29l0 51.8 55.71 -56.69c1.52,-1.74 3.37,-2.61 5.54,-2.61 1.85,0 3.45,0.62 4.81,1.87 1.36,1.25 2.04,2.8 2.04,4.64 0,2.17 -0.6,3.85 -1.79,5.05l-37.63 37.47 43.17 54.41c1.19,1.52 1.79,3.1 1.79,4.72 0.11,1.96 -0.54,3.64 -1.96,5.05 -1.41,1.41 -3.15,2.12 -5.21,2.12 -2.5,0 -4.45,-0.98 -5.86,-2.93l-42.03 -53.59 -18.57 18.73 0 30.46c0,2.06 -0.73,3.8 -2.2,5.21 -1.47,1.41 -3.23,2.12 -5.29,2.12zm109.14 -0.81c-2.06,0 -3.8,-0.71 -5.21,-2.12 -1.41,-1.41 -2.12,-3.15 -2.12,-5.21l0 -98.88c0,-2.06 0.71,-3.83 2.12,-5.29 1.41,-1.47 3.15,-2.2 5.21,-2.2l65.32 0c1.95,0 3.61,0.68 4.97,2.04 1.36,1.36 2.04,3.01 2.04,4.97 0,1.96 -0.68,3.58 -2.04,4.89 -1.36,1.3 -3.01,1.96 -4.97,1.96l-57.83 0 0 36 51.96 0c1.95,0 3.61,0.68 4.97,2.04 1.36,1.36 2.04,3.01 2.04,4.97 0,1.96 -0.68,3.58 -2.04,4.89 -1.36,1.3 -3.01,1.96 -4.97,1.96l-51.96 0 0 36.16 57.83 0c1.95,0 3.61,0.68 4.97,2.04 1.36,1.36 2.04,3.01 2.04,4.97 0,1.96 -0.68,3.58 -2.04,4.89 -1.36,1.3 -3.01,1.96 -4.97,1.96l-65.32 0zm103.93 0.81c-2.06,0 -3.8,-0.71 -5.21,-2.12 -1.41,-1.41 -2.12,-3.15 -2.12,-5.21l0 -99.69c0,-2.06 0.71,-3.83 2.12,-5.29 1.41,-1.47 3.15,-2.2 5.21,-2.2l37.96 0c14.77,0 25.85,3.04 33.23,9.12 7.39,6.08 11.08,14.06 11.08,23.95 0,6.52 -1.82,12.46 -5.46,17.84 -3.64,5.38 -8.93,9.26 -15.88,11.65 7.82,2.06 13.17,6.92 16.05,14.58 2.88,7.66 4.32,15.18 4.32,22.56l0 7.49c0,2.06 -0.7,3.8 -2.12,5.21 -1.41,1.41 -3.15,2.12 -5.21,2.12 -2.28,0 -4.1,-0.68 -5.46,-2.04 -1.36,-1.36 -2.04,-3.12 -2.04,-5.29l0 -4.89c0,-5.43 -0.49,-10.45 -1.47,-15.07 -0.98,-4.62 -3.31,-8.74 -7.01,-12.38 -3.69,-3.64 -9.28,-5.46 -16.78,-5.46l-33.72 0 0 37.79c0,2.06 -0.73,3.8 -2.2,5.21 -1.47,1.41 -3.23,2.12 -5.29,2.12zm36.98 -59.13c9.34,0 16.75,-1.85 22.24,-5.54 5.48,-3.69 8.23,-8.91 8.23,-15.64 0,-6.52 -2.36,-11.51 -7.09,-14.99 -4.72,-3.48 -12.79,-5.21 -24.19,-5.21l-28.67 0 0 41.37 29.48 0z"/>
   <path class="fil2" d="M117.86 182.58c-0.9,-5.14 -0.73,-10.46 -7.79,-10.46 -6.94,0 -7.03,5.06 -7.89,10.09 -2.71,15.94 -6.58,34.51 -11.12,44.32l38.05 -0.08c-4.55,-9.71 -8.47,-28.03 -11.24,-43.87z"/>
   <path class="fil3" d="M166.6 84.46c3.4,2.73 6.97,5.56 10.71,8.53l3.37 2.67c13.26,10.54 21.11,21.7 24.75,32.46 3.27,9.67 3.13,19.1 0.48,27.44 -2.65,8.34 -7.79,15.61 -14.5,20.96 -6.72,5.35 -14.98,8.77 -23.87,9.38l-0.17 0.01c-11.17,0.74 -20.18,-2.89 -27.19,-7.97 -4.45,-3.71 -8.15,-7.05 -11.26,-9.99 -0.37,-0.35 -0.74,-0.7 -1.09,-1.04 -0.77,-0.54 -1.72,-0.85 -2.73,-0.85 -2.66,0 -4.81,2.15 -4.81,4.81 0,1.03 0.33,1.99 0.88,2.78 0.21,0.24 0.42,0.48 0.63,0.72 12.13,13.89 24.67,23.42 46.27,21.98 44.99,-2.99 76.8,-63.05 19.12,-108.89 -4.63,-3.68 -8.97,-7.12 -13.09,-10.42 -1.36,-1.09 -2.69,-2.16 -4,-3.22 -1.21,-0.98 -2.41,-1.96 -3.58,-2.92 -1.33,-1.09 -2.64,-2.18 -3.93,-3.25l-7.44 7.44c1.26,1.06 2.55,2.13 3.87,3.21 1.19,0.98 2.4,1.97 3.63,2.97 1.29,1.05 2.61,2.11 3.94,3.18zm-108.85 101.72c-1.67,0.1 -3.4,0.1 -5.18,-0.02 -0.91,-0.06 -1.81,-0.14 -2.7,-0.26 -1.58,-0.2 -3.13,-0.49 -4.66,-0.86l-8.36 8.36c3.49,1.29 7.14,2.23 10.91,2.77 1.39,0.2 2.79,0.34 4.2,0.43 21.71,1.35 34.08,-8.26 46.19,-22.19 0.18,-0.21 0.36,-0.42 0.54,-0.63 0.58,-0.8 0.92,-1.79 0.92,-2.86 0,-2.69 -2.18,-4.86 -4.86,-4.86 -1.27,0 -2.42,0.48 -3.28,1.28 -0,0 -0.01,0.01 -0.01,0.01 -4.1,3.77 -9.2,8.21 -15.62,13.33 -3.36,1.96 -7.12,3.55 -11.3,4.52 -2.15,0.5 -4.4,0.83 -6.77,0.97zm-44.97 -34.51c-1.5,-7.2 -1.17,-15.08 1.52,-23.14 3.6,-10.77 11.4,-21.96 24.62,-32.57l3.36 -2.7c30.59,-24.51 49.15,-39.39 67.36,-69.66 5.25,8.64 10.52,16.03 16.09,22.73l7.47 -7.47c-8.24,-10.03 -15.79,-21.63 -23.61,-36.85l-0.01 -0c-21.2,41.66 -40.44,56.29 -77.23,85.8 -17.7,14.2 -26.91,29.71 -29.86,44.45 -1.48,7.4 -1.39,14.6 0,21.35 0.46,2.24 1.06,4.42 1.79,6.55 1.13,3.28 2.57,6.42 4.29,9.39l7.72 -7.72c-0.93,-1.88 -1.73,-3.84 -2.38,-5.86 -0.45,-1.41 -0.83,-2.84 -1.14,-4.31zm86.51 -60.95l10.34 -29.02 -29.06 10.3 5.94 5.94 -73.73 73.73c0.3,1.47 0.69,2.9 1.14,4.31 0.65,2.02 1.45,3.97 2.38,5.86l77.05 -77.05 5.94 5.94zm-41.54 95.47l104.9 -104.9c-1.23,-1 -2.44,-1.99 -3.63,-2.97 -1.31,-1.08 -2.6,-2.15 -3.87,-3.21l-109.95 109.95c1.53,0.37 3.08,0.66 4.66,0.86 0.89,0.11 1.8,0.2 2.7,0.26 1.79,0.11 3.51,0.11 5.18,0.02zm104.84 -118.52c1.28,1.07 2.59,2.16 3.93,3.25 1.17,0.96 2.37,1.93 3.58,2.92l26.33 -26.33 5.94 5.94 10.34 -29.02 -29.06 10.3 5.94 5.94 -27 27z"/>
   <path class="fil2" d="M24.32 173.11l-7.39 7.39c2.27,2.31 4.75,4.42 7.39,6.29l7.52 -7.52c0.01,0 0.01,0.01 0.02,0.01l113.11 -113.04 6.11 5.4 3.75 -10.64 6.27 -17.78 -18.21 6.45 -10.85 3.85 5.94 5.94 -0.09 0.09 -113.57 113.57z"/>
  </g>
 </g>
</svg>
