<?xml version="1.0" encoding="UTF-8"?>
<!DOCTYPE svg PUBLIC "-//W3C//DTD SVG 1.1//EN" "http://www.w3.org/Graphics/SVG/1.1/DTD/svg11.dtd">
<!-- Creator: CorelDRAW 2019 (64-Bit) -->
<svg xmlns="http://www.w3.org/2000/svg" xml:space="preserve" width="24.6666mm" height="24.6944mm" version="1.1" style="shape-rendering:geometricPrecision; text-rendering:geometricPrecision; image-rendering:optimizeQuality; fill-rule:evenodd; clip-rule:evenodd"
viewBox="0 0 132.55 132.7"
 xmlns:xlink="http://www.w3.org/1999/xlink">
 <defs>
  <style type="text/css">
   <![CDATA[
    .fil0 {fill:#B1F049}
   ]]>
  </style>
 </defs>
 <g id="Слой_x0020_1">
  <metadata id="CorelCorpID_0Corel-Layer"/>
  <g id="money_x0020_back">
   <path class="fil0" d="M130.79 77.1c-1.86,-2.6 -4.96,-4.34 -8.08,-4.56 -2.55,-0.17 -4.86,0.69 -6.51,2.43 -0.36,0.38 -0.75,0.8 -1.16,1.25 -1.82,-1.67 -4.21,-2.74 -6.61,-2.9 -2.55,-0.17 -4.86,0.69 -6.51,2.43 -3.58,3.79 -9.92,11.2 -14.9,17.09 -0.65,-0.38 -1.34,-0.7 -2.08,-0.94 -2.38,-1.03 -35.19,-15.04 -49.74,-15.04 -23.5,0 -34.29,12.63 -34.74,13.17 -0.69,0.82 -0.58,2.05 0.25,2.74 0.82,0.69 2.05,0.58 2.74,-0.24 0.02,-0.03 2.55,-2.98 7.7,-5.89 4.75,-2.68 12.77,-5.88 24.05,-5.88 13.97,0 47.94,14.61 48.28,14.76 0.62,0.27 1.27,0.48 1.84,0.86 0.54,0.36 1.02,0.8 1.42,1.31 0.78,0.98 1.28,2.2 1.38,3.45 0.22,2.63 -1.26,5.17 -3.64,6.29 -1.5,0.71 -3.09,0.73 -4.66,0.3l-21.25 -5.85c-1.02,-0.28 -2.11,0.34 -2.4,1.36 -0.28,1.02 0.34,2.11 1.36,2.4l21.22 5.84c2.58,0.8 5.4,0.54 7.79,-0.72 2.43,-1.27 4.21,-3.41 5.03,-6.03 0.27,-0.85 0.42,-1.72 0.46,-2.59l5.7 -0.6c0.5,-0.05 0.97,-0.3 1.29,-0.69 0.14,-0.17 14.12,-16.95 20.01,-23.19 2.45,-2.59 6.83,-0.76 8.59,1.72 2.72,3.8 -0.66,7.95 -1.76,9.13 -5.41,5.81 -15.33,17.77 -17.12,19.92l-40.38 20.19 -20.78 -8.75c-0.98,-0.41 -2.14,0.06 -2.55,1.04 -0.41,0.98 0.06,2.14 1.04,2.55l21.6 9.1c0.52,0.22 1.12,0.2 1.63,-0.05l41.55 -20.78c0.24,-0.12 0.46,-0.29 0.63,-0.5 0.11,-0.14 11.47,-13.89 17.22,-20.06 4.23,-4.54 5.03,-9.93 2.08,-14.05zm-34.26 20.64l-5.07 0.53c-0.36,-1.02 -0.88,-1.98 -1.53,-2.84 4.24,-5.02 11.13,-13.1 14.82,-17.01 1.07,-1.13 2.44,-1.29 3.41,-1.22 1.53,0.1 3.09,0.82 4.27,1.91 -5.84,6.6 -13.8,16.1 -15.9,18.61z"/>
   <path class="fil0" d="M38.02 115.84l-8.31 -3.5c-0.24,-0.1 -0.5,-0.15 -0.76,-0.15l-27.01 0c-1.08,0 -1.95,0.87 -1.95,1.95 0,1.08 0.87,1.95 1.95,1.95l26.61 0 7.95 3.35c1.05,0.44 2.27,-0.13 2.61,-1.21 0.3,-0.95 -0.19,-2 -1.1,-2.38z"/>
   <path class="fil0" d="M103.47 64.94l-8.29 1.18c6.74,-7.23 10.52,-16.69 10.52,-26.78 0,-21.69 -17.65,-39.34 -39.34,-39.34 -21.69,0 -39.34,17.65 -39.34,39.34 0,8.7 2.79,16.95 8.05,23.85 5.1,6.68 12.33,11.63 20.36,13.95 1.06,0.31 2.19,-0.36 2.44,-1.44 0.23,-0.99 -0.38,-2.02 -1.36,-2.31 -15.07,-4.35 -25.6,-18.36 -25.6,-34.06 0,-19.55 15.9,-35.45 35.45,-35.45 19.55,0 35.45,15.9 35.45,35.45 0,9.66 -3.84,18.69 -10.65,25.33l0 -10.27c0,-1.08 -0.87,-1.95 -1.95,-1.95 -1.08,0 -1.95,0.87 -1.95,1.95l0 14.54c0,1.16 1.07,2.09 2.22,1.93l14.54 -2.08c1.05,-0.15 1.8,-1.15 1.65,-2.2 -0.15,-1.05 -1.15,-1.8 -2.2,-1.65z"/>
   <path class="fil0" d="M66.35 37.4l-2.08 0c-2.36,0 -4.28,-1.92 -4.28,-4.28 0,-2.36 1.92,-4.28 4.28,-4.28l8.31 0c1.08,0 1.95,-0.87 1.95,-1.95 0,-1.08 -0.87,-1.95 -1.95,-1.95l-4.29 0 0 -2.21c0,-1.08 -0.87,-1.95 -1.95,-1.95 -1.08,0 -1.95,0.87 -1.95,1.95l0 2.21 -0.13 0c-4.51,0 -8.18,3.67 -8.18,8.18 0,4.51 3.67,8.18 8.18,8.18l2.08 0c2.36,0 4.28,1.92 4.28,4.28 0,2.36 -1.92,4.28 -4.28,4.28l-8.31 0c-1.08,0 -1.95,0.87 -1.95,1.95 0,1.08 0.87,1.95 1.95,1.95l6.36 0 0 2.21c0,1.08 0.87,1.95 1.95,1.95 1.08,0 1.95,-0.87 1.95,-1.95l0 -2.44c3.57,-0.88 6.23,-4.1 6.23,-7.94 0,-4.51 -3.67,-8.18 -8.18,-8.18z"/>
  </g>
 </g>
</svg>
