<?xml version="1.0" encoding="UTF-8"?>
<!DOCTYPE svg PUBLIC "-//W3C//DTD SVG 1.1//EN" "http://www.w3.org/Graphics/SVG/1.1/DTD/svg11.dtd">
<!-- Creator: CorelDRAW 2019 (64-Bit) -->
<svg xmlns="http://www.w3.org/2000/svg" xml:space="preserve" width="19.4026mm" height="19.4028mm" version="1.1" style="shape-rendering:geometricPrecision; text-rendering:geometricPrecision; image-rendering:optimizeQuality; fill-rule:evenodd; clip-rule:evenodd"
viewBox="0 0 68.89 68.89"
 xmlns:xlink="http://www.w3.org/1999/xlink">
 <defs>
  <style type="text/css">
   <![CDATA[
    .fil0 {fill:#B1F049}
   ]]>
  </style>
 </defs>
 <g id="Слой_x0020_1">
  <metadata id="CorelCorpID_0Corel-Layer"/>
  <g id="qr">
   <path class="fil0" d="M17.87 13.44c-0.58,-0.58 -1.39,-0.92 -2.21,-0.92 -0.82,0 -1.63,0.33 -2.21,0.92 -0.58,0.58 -0.92,1.39 -0.92,2.21 0,0.82 0.33,1.63 0.92,2.22 0.58,0.58 1.39,0.92 2.21,0.92 0.82,0 1.63,-0.33 2.21,-0.92 0.58,-0.58 0.92,-1.39 0.92,-2.22 0,-0.82 -0.33,-1.63 -0.92,-2.21z"/>
   <path class="fil0" d="M28.18 0l-25.05 0c-1.73,0 -3.13,1.4 -3.13,3.13l0 25.05c0,1.73 1.4,3.13 3.13,3.13l25.05 0c1.73,0 3.13,-1.4 3.13,-3.13l0 -25.05c-0,-1.73 -1.4,-3.13 -3.13,-3.13zm-3.13 25.05l-18.79 0 0 -18.79 18.79 0 0 18.79 0 0z"/>
   <path class="fil0" d="M55.44 13.44c-0.58,-0.58 -1.39,-0.92 -2.21,-0.92 -0.82,0 -1.63,0.33 -2.21,0.92 -0.58,0.58 -0.92,1.39 -0.92,2.21 0,0.82 0.33,1.63 0.92,2.22 0.58,0.58 1.39,0.92 2.21,0.92 0.82,0 1.63,-0.33 2.21,-0.92 0.58,-0.58 0.92,-1.39 0.92,-2.22 0,-0.82 -0.33,-1.63 -0.92,-2.21z"/>
   <path class="fil0" d="M65.76 0l-25.05 0c-1.73,0 -3.13,1.4 -3.13,3.13l0 25.05c0,1.73 1.4,3.13 3.13,3.13l25.05 0c1.73,0 3.13,-1.4 3.13,-3.13l0 -25.05c0,-1.73 -1.4,-3.13 -3.13,-3.13zm-3.13 25.05l-18.79 0 0 -18.79 18.79 0 0 18.79 0 0z"/>
   <path class="fil0" d="M17.87 51.02c-0.58,-0.58 -1.39,-0.92 -2.21,-0.92 -0.82,0 -1.63,0.33 -2.21,0.92 -0.58,0.58 -0.92,1.39 -0.92,2.22 0,0.82 0.33,1.63 0.92,2.21 0.58,0.58 1.39,0.92 2.21,0.92 0.82,0 1.63,-0.33 2.21,-0.92 0.58,-0.58 0.92,-1.39 0.92,-2.21 0,-0.82 -0.33,-1.63 -0.92,-2.22z"/>
   <path class="fil0" d="M28.18 37.58l-25.05 0c-1.73,0 -3.13,1.4 -3.13,3.13l0 25.05c0,1.73 1.4,3.13 3.13,3.13l25.05 0c1.73,0 3.13,-1.4 3.13,-3.13l0 -25.05c-0,-1.73 -1.4,-3.13 -3.13,-3.13zm-3.13 25.05l-18.79 0 0 -18.79 18.79 0 0 18.79 0 0z"/>
   <path class="fil0" d="M55.32 50.1l-2.09 0c-1.73,0 -3.13,1.4 -3.13,3.13 0,1.73 1.4,3.13 3.13,3.13l2.09 0c1.73,0 3.13,-1.4 3.13,-3.13 0,-1.73 -1.4,-3.13 -3.13,-3.13z"/>
   <path class="fil0" d="M65.76 56.36c-1.73,0 -3.13,1.4 -3.13,3.13l0 3.13 -7.31 0c-1.73,0 -3.13,1.4 -3.13,3.13 0,1.73 1.4,3.13 3.13,3.13l10.44 0c1.73,0 3.13,-1.4 3.13,-3.13l0 -6.26c0,-1.73 -1.4,-3.13 -3.13,-3.13z"/>
   <path class="fil0" d="M40.71 50.1c-1.73,0 -3.13,1.4 -3.13,3.13l0 4.17c0,1.73 1.4,3.13 3.13,3.13 1.73,0 3.13,-1.4 3.13,-3.13l0 -4.17c0,-1.73 -1.4,-3.13 -3.13,-3.13z"/>
   <path class="fil0" d="M55.32 37.58l-6.26 0c-1.73,0 -3.13,1.4 -3.13,3.13 0,1.73 1.4,3.13 3.13,3.13l6.26 0c1.73,0 3.13,-1.4 3.13,-3.13 0,-1.73 -1.4,-3.13 -3.13,-3.13z"/>
  </g>
 </g>
</svg>
