<?xml version="1.0" encoding="UTF-8"?>
<!DOCTYPE svg PUBLIC "-//W3C//DTD SVG 1.1//EN" "http://www.w3.org/Graphics/SVG/1.1/DTD/svg11.dtd">
<!-- Creator: CorelDRAW 2019 (64-Bit) -->
<svg xmlns="http://www.w3.org/2000/svg" xml:space="preserve" width="11.289mm" height="11.289mm" version="1.1" style="shape-rendering:geometricPrecision; text-rendering:geometricPrecision; image-rendering:optimizeQuality; fill-rule:evenodd; clip-rule:evenodd"
viewBox="0 0 20.19 20.19"
 xmlns:xlink="http://www.w3.org/1999/xlink">
 <defs>
  <style type="text/css">
   <![CDATA[
    .fil0 {fill:#4CAF50}
    .fil1 {fill:#FAFAFA}
   ]]>
  </style>
 </defs>
 <g id="Слой_x0020_1">
  <metadata id="CorelCorpID_0Corel-Layer"/>
  <g id="whatsapp">
   <path class="fil0" d="M10.1 0l-0.01 0 0 0c-5.57,0 -10.09,4.53 -10.09,10.09 0,2.21 0.71,4.25 1.92,5.92l-1.26 3.75 3.88 -1.24c1.6,1.06 3.5,1.67 5.55,1.67 5.57,0 10.09,-4.53 10.09,-10.09 0,-5.57 -4.53,-10.09 -10.09,-10.09z"/>
   <path class="fil1" d="M15.97 14.25c-0.24,0.69 -1.21,1.26 -1.98,1.42 -0.53,0.11 -1.22,0.2 -3.54,-0.76 -2.97,-1.23 -4.88,-4.24 -5.03,-4.44 -0.14,-0.2 -1.2,-1.6 -1.2,-3.04 0,-1.45 0.74,-2.15 1.03,-2.46 0.24,-0.25 0.65,-0.36 1.03,-0.36 0.12,0 0.24,0.01 0.34,0.01 0.3,0.01 0.45,0.03 0.64,0.5 0.24,0.59 0.84,2.04 0.91,2.18 0.07,0.15 0.14,0.35 0.04,0.55 -0.09,0.2 -0.18,0.29 -0.33,0.46 -0.15,0.17 -0.29,0.3 -0.44,0.49 -0.14,0.16 -0.29,0.33 -0.12,0.63 0.17,0.29 0.76,1.26 1.64,2.04 1.13,1 2.04,1.32 2.37,1.46 0.24,0.1 0.53,0.08 0.71,-0.11 0.23,-0.24 0.5,-0.65 0.79,-1.04 0.2,-0.29 0.46,-0.32 0.72,-0.22 0.27,0.09 1.71,0.81 2.01,0.96 0.3,0.15 0.49,0.22 0.56,0.34 0.07,0.12 0.07,0.71 -0.17,1.4z"/>
  </g>
 </g>
</svg>
