<?xml version="1.0" standalone="no"?>
<!DOCTYPE svg PUBLIC "-//W3C//DTD SVG 20010904//EN"
 "http://www.w3.org/TR/2001/REC-SVG-20010904/DTD/svg10.dtd">
<svg version="1.0" xmlns="http://www.w3.org/2000/svg"
 width="700.000000pt" height="700.000000pt" viewBox="0 0 700.000000 700.000000"
 preserveAspectRatio="xMidYMid meet">
<metadata>
Created by potrace 1.11, written by Peter Selinger 2001-2013
</metadata>
<g transform="translate(0.000000,700.000000) scale(0.100000,-0.100000)"
fill="#000000" stroke="none">
<path d="M3278 6995 c-2 -1 -41 -5 -88 -9 -87 -7 -105 -9 -225 -27 -116 -18
-123 -19 -192 -35 -184 -42 -248 -59 -369 -99 -317 -106 -649 -271 -886 -440
-31 -22 -66 -47 -78 -55 -45 -30 -187 -145 -265 -214 -149 -132 -331 -326
-445 -476 -19 -25 -38 -49 -43 -55 -112 -141 -287 -440 -377 -645 -23 -52 -46
-104 -51 -115 -59 -129 -157 -456 -193 -650 -32 -165 -37 -202 -53 -375 -10
-105 -10 -500 -1 -595 4 -38 10 -97 14 -130 17 -179 87 -485 155 -688 90 -268
226 -550 379 -787 43 -67 184 -259 238 -324 262 -316 556 -567 927 -793 168
-102 463 -237 670 -305 194 -64 423 -117 614 -144 25 -3 57 -8 71 -10 194 -30
696 -25 907 10 21 4 52 8 68 10 333 42 875 233 1177 416 37 22 70 40 73 40 3
0 11 5 18 10 7 6 62 44 124 84 246 163 471 358 663 575 36 41 70 79 76 85 32
34 188 246 249 341 219 336 406 779 481 1140 16 79 54 301 59 350 4 33 9 71
11 85 9 49 11 526 3 612 -13 140 -22 208 -39 308 -6 36 -13 79 -16 95 -22 125
-125 481 -169 580 -7 17 -32 75 -55 130 -199 475 -554 946 -980 1303 -68 57
-307 232 -351 257 -10 5 -49 29 -86 51 -87 53 -299 163 -383 199 -36 15 -83
35 -105 45 -22 9 -69 27 -105 39 -36 13 -72 26 -80 29 -64 23 -283 83 -375
103 -139 29 -136 28 -180 34 -22 3 -51 7 -65 10 -13 2 -52 7 -86 11 -33 3 -74
8 -90 10 -32 5 -540 14 -546 9z"/>
</g>
</svg>
